# xmcd
#
# Track frame offsets: 
#        182
#        19032
#        33307
#        59282
#
# Disc length: 1190 seconds
#
# Revision: 0
# Processed by: cddbd v1.5.2PL0 Copyright (c) Steve Scherf et al.
# Submitted via: ExactAudioCopy v0.99pb5
#
DISCID=2804a404
DTITLE=Five - Until The Time Is Through (Single)
DYEAR=1997
DGENRE=pop
TTITLE0=Until The Time Is Through (Radio Edit)
TTITLE1=Stop Pushing Me
TTITLE2=Five Megamix
TTITLE3=Exclusive Interview
EXTD=
EXTT0=
EXTT1=
EXTT2=
EXTT3=
PLAYORDER=
